<?xml version="1.0" encoding="UTF-8" standalone="no"?>
<!-- Created with Inkscape (http://www.inkscape.org/) -->

<svg
   width="16"
   height="16"
   viewBox="0 0 16 16"
   version="1.1"
   id="svg5"
   inkscape:version="1.1.2 (b8e25be833, 2022-02-05)"
   sodipodi:docname="Lumos.svg"
   xmlns:inkscape="http://www.inkscape.org/namespaces/inkscape"
   xmlns:sodipodi="http://sodipodi.sourceforge.net/DTD/sodipodi-0.dtd"
   xmlns="http://www.w3.org/2000/svg"
   xmlns:svg="http://www.w3.org/2000/svg">
  <sodipodi:namedview
     id="namedview7"
     pagecolor="#ffffff"
     bordercolor="#666666"
     borderopacity="1.0"
     inkscape:pageshadow="2"
     inkscape:pageopacity="0.0"
     inkscape:pagecheckerboard="true"
     inkscape:document-units="px"
     showgrid="false"
     showguides="true"
     inkscape:guide-bbox="true"
     inkscape:zoom="45.254834"
     inkscape:cx="8.396893"
     inkscape:cy="9.3912619"
     inkscape:window-width="1920"
     inkscape:window-height="1017"
     inkscape:window-x="-8"
     inkscape:window-y="-8"
     inkscape:window-maximized="1"
     inkscape:current-layer="layer4" />
  <defs
     id="defs2">
    <inkscape:path-effect
       effect="bspline"
       id="path-effect12414"
       is_visible="true"
       lpeversion="1"
       weight="33.333333"
       steps="2"
       helper_size="0"
       apply_no_weight="true"
       apply_with_weight="true"
       only_selected="false" />
    <inkscape:path-effect
       effect="bspline"
       id="path-effect9588"
       is_visible="true"
       lpeversion="1"
       weight="33.333333"
       steps="2"
       helper_size="0"
       apply_no_weight="true"
       apply_with_weight="true"
       only_selected="false" />
    <inkscape:path-effect
       effect="bspline"
       id="path-effect2479"
       is_visible="true"
       lpeversion="1"
       weight="33.333333"
       steps="2"
       helper_size="0"
       apply_no_weight="true"
       apply_with_weight="true"
       only_selected="false" />
  </defs>
  <g
     inkscape:groupmode="layer"
     id="layer4"
     inkscape:label="Lumos"
     style="display:inline">
    <path
       id="path13512"
       style="fill:#ffffff;fill-opacity:1;stroke:none;stroke-width:1.607;stroke-linejoin:round;stroke-miterlimit:4;stroke-dasharray:none;stroke-dashoffset:0.566929;stroke-opacity:1"
       d="M 7.4547411,2.1227611 C 7.3771764,2.164827 7.1846026,2.1831496 7.1321845,2.2522828 7.0546325,2.3545662 7.0764101,2.546797 7.0341114,2.6422003 6.9611809,2.8066941 6.8212734,2.8199276 6.5438246,2.5727951 6.4086092,2.2866436 5.3468161,2.8057634 5.1383216,3.2242519 4.8268467,3.703853 4.363317,4.1075397 4.3087879,4.6971218 4.498993,5.2356237 4.0177038,5.862599 4.396451,6.3304923 4.7048526,6.6464902 4.7174254,6.9449706 4.2837709,7.0008484 c -0.185004,0.5582471 -0.062113,1.1511422 0.2499345,1.6462945 0.2903095,0.5695199 0.67722,1.0970334 0.9771335,1.6456311 0.1821575,0.336397 0.4207907,0.449537 0.5927094,0.773446 0.2342524,0.13175 0.224818,0.29451 0.224818,0.29451 0,0 -0.7077865,0.202417 -0.9094508,0.248505 -0.6461212,0.177067 -1.2233671,0.35144 -1.8848669,0.316895 -0.8759246,0.0098 -1.725653,0.218428 -2.59247113,0.06376 -0.41359446,-0.04769 -0.77781712,0.124462 -0.77781712,0.124462 0,0 0.29064399,0.220758 0.65553386,0.329986 0.39569979,0.11845 0.87871329,0.127683 1.17306719,0.171013 0.5618689,-0.08004 1.1524388,-0.05342 1.7247976,-0.02544 0.5211496,0.179878 1.0245885,0.268291 1.5423732,0.114841 0.6520359,0.04241 1.2351821,-0.141524 1.8135323,-0.426314 0.4318492,-0.198469 1.0073111,-0.127409 1.4616152,-0.07247 0.6129758,0.404465 1.3022206,0.05329 1.9472313,0.139446 0.517655,0.06914 1.031342,0.07583 1.537341,0.302175 0.528031,0.279613 1.109052,0.200828 1.677268,0.137835 0.568588,-0.05229 0.999392,0.127461 1.587319,-0.289864 0.0932,-0.08791 0.223446,-0.203519 0.309964,-0.426741 0.05817,-0.150075 0.08786,-0.398256 0.02021,-0.447262 0,0 -0.265038,0.359854 -0.709757,0.364067 -0.556301,0.0053 -1.143131,-0.09837 -1.780599,-0.188401 -0.560178,-0.09187 -1.033495,-0.385872 -1.607055,-0.44799 -0.424579,-0.150736 -1.116623,-0.136185 -1.6780121,-0.148605 -0.1537164,-0.0034 -0.3648589,0.06852 -0.4608138,0.02033 -0.058186,-0.02922 0.6643449,-0.272843 1.2730039,-1.214452 0.364196,-0.4795834 0.654324,-0.9993811 1.001709,-1.4728665 0.08121,-0.227664 0.539035,-1.2504334 0.319365,-1.9103263 C 11.867924,6.0434471 11.739009,5.3767698 11.451446,4.8225767 11.233275,4.4021179 10.902736,4.0441781 10.562849,3.7153522 10.21684,3.3806027 9.8388613,3.0781679 9.4077755,2.8498745 9.0727689,2.6211513 8.6638184,2.5365904 8.3122019,2.3431932 7.9955701,2.3349079 7.7774137,2.113106 7.4547411,2.1227611 Z m 0.1627752,1.431958 c 0.6805557,-0.011183 1.2667428,0.4019986 1.7197511,0.8745108 0.4345429,0.2860215 0.9108606,0.6612288 1.0645236,1.1721965 -0.01603,0.6456734 0.08145,1.2539573 -0.0169,1.9627742 0.01458,0.607191 -0.4086,1.0377862 -0.7606831,1.4665778 C 9.1324554,9.6609419 8.4820625,10.129197 7.9025466,10.667302 7.4341425,10.671488 6.9159657,10.302846 6.6314739,9.8868065 6.24733,9.2220489 5.8090363,8.5736885 5.5640436,7.8348572 5.5315653,7.2697779 5.4990034,6.7035263 5.4983261,6.1290966 5.4038386,5.5919452 5.5361742,5.0640793 5.5927002,4.5471501 5.497801,4.032512 6.1134529,3.5778372 6.5845204,3.7215129 6.9550566,3.7684494 7.2785073,3.6630285 7.6175163,3.5547191 Z M 5.9365486,3.8411108 c 0.030884,-0.00216 -0.061958,0.015726 0,0 z M 2.9314667,11.941901 c 0.034207,-0.0025 -0.0042,0.01238 0,0 z"
       sodipodi:nodetypes="csscccccccccccccscccccacccsssccaccccaaccccccccccccccccccc" />
  </g>
</svg>
