<?xml version="1.0" encoding="UTF-8" standalone="no"?>
<!-- Created with Inkscape (http://www.inkscape.org/) -->

<svg
   width="16"
   height="16"
   viewBox="0 0 16 16"
   version="1.1"
   id="svg5"
   inkscape:version="1.1.2 (b8e25be833, 2022-02-05)"
   sodipodi:docname="Flipendo.svg"
   xmlns:inkscape="http://www.inkscape.org/namespaces/inkscape"
   xmlns:sodipodi="http://sodipodi.sourceforge.net/DTD/sodipodi-0.dtd"
   xmlns="http://www.w3.org/2000/svg"
   xmlns:svg="http://www.w3.org/2000/svg">
  <sodipodi:namedview
     id="namedview7"
     pagecolor="#ffffff"
     bordercolor="#666666"
     borderopacity="1.0"
     inkscape:pageshadow="2"
     inkscape:pageopacity="0.0"
     inkscape:pagecheckerboard="true"
     inkscape:document-units="px"
     showgrid="false"
     showguides="true"
     inkscape:guide-bbox="true"
     inkscape:zoom="32"
     inkscape:cx="10.4375"
     inkscape:cy="6.53125"
     inkscape:window-width="1920"
     inkscape:window-height="1017"
     inkscape:window-x="-8"
     inkscape:window-y="-8"
     inkscape:window-maximized="1"
     inkscape:current-layer="layer1" />
  <defs
     id="defs2">
    <inkscape:path-effect
       effect="bspline"
       id="path-effect12414"
       is_visible="true"
       lpeversion="1"
       weight="33.333333"
       steps="2"
       helper_size="0"
       apply_no_weight="true"
       apply_with_weight="true"
       only_selected="false" />
    <inkscape:path-effect
       effect="bspline"
       id="path-effect9588"
       is_visible="true"
       lpeversion="1"
       weight="33.333333"
       steps="2"
       helper_size="0"
       apply_no_weight="true"
       apply_with_weight="true"
       only_selected="false" />
    <inkscape:path-effect
       effect="bspline"
       id="path-effect2479"
       is_visible="true"
       lpeversion="1"
       weight="33.333333"
       steps="2"
       helper_size="0"
       apply_no_weight="true"
       apply_with_weight="true"
       only_selected="false" />
  </defs>
  <g
     inkscape:label="Flipendo"
     inkscape:groupmode="layer"
     id="layer1"
     style="display:inline">
    <path
       style="fill:#ffffff;fill-opacity:1;stroke:none;stroke-width:2.30809px;stroke-linecap:butt;stroke-linejoin:miter;stroke-opacity:1"
       d="m 1.3771254,6.390919 c 0.088294,-0.00924 0.1490944,0.026917 0.4149149,0.1284151 0.2658206,0.1014978 0.7367322,0.268989 1.3109292,0.893861 0.5741971,0.6248721 1.2523513,1.7050635 1.7018922,2.5004896 0.4495409,0.7954263 0.670922,1.3058373 0.8069451,1.4811293 0.136023,0.175293 0.1887311,0.0165 0.302416,-0.668824 C 6.0279076,10.040664 6.2022388,8.828361 6.5558343,7.7105013 6.9094297,6.5926415 7.4426818,5.5704157 7.909138,4.5642325 8.3755941,3.5580494 8.7751566,2.5676786 9.1418932,1.9546972 9.5086298,1.3417157 9.8419141,1.1079276 10.119472,0.98409895 c 0.277558,-0.1238287 0.497585,-0.13748277 0.703903,-0.12652262 0.206318,0.0109602 0.398265,0.0460149 0.59682,0.16973437 0.198556,0.1237194 0.403626,0.3340963 0.587766,0.639887 0.18414,0.3057907 0.34839,0.7062314 0.427941,1.0301001 0.07955,0.3238686 0.07573,0.5713792 0.08014,0.8875532 0.0044,0.316174 0.01691,0.7009009 0.109753,0.8938297 0.09284,0.1929289 0.264225,0.196977 0.462366,0.1592969 0.19814,-0.03768 0.424199,-0.116793 0.563164,-0.2094557 0.138965,-0.092663 0.192342,-0.2007407 0.273361,-0.4928871 0.08102,-0.2921465 0.189407,-0.7690808 0.217926,-1.2429156 0.02852,-0.4738348 -0.02406,-0.9483126 -0.0763,-1.4197095 0.248341,-0.022923 0.498212,-0.045987 0.665018,0.1749895 0.166807,0.2209767 0.253013,0.6825176 0.312307,1.1808177 0.0593,0.4983002 0.09207,1.0334244 0.01121,1.4879448 C 14.973972,4.571282 14.78046,4.9466 14.600987,5.3514942 14.421513,5.7563884 14.256031,6.1904382 14.036013,6.4152613 13.815996,6.6400844 13.539083,6.6577218 13.195158,6.6489343 12.851232,6.6401468 12.439977,6.604662 12.127257,6.3819507 11.814537,6.1592394 11.60087,5.7464509 11.460057,5.4487644 11.319243,5.151078 11.251699,4.9683947 11.229306,4.5862947 11.206914,4.2041946 11.230961,3.623038 11.144931,3.2911965 11.058902,2.9593551 10.860105,2.8786657 10.673804,2.8531228 10.487503,2.8275799 10.315046,2.8584595 10.134689,3.0281623 9.9543322,3.1978651 9.7681619,3.5048147 9.4972568,4.1496716 9.2263517,4.7945286 8.8706624,5.7765439 8.5687764,6.6576509 8.2668904,7.538758 8.0187961,8.3187236 7.8370239,9.0761355 7.6552516,9.8335474 7.5374846,10.580987 7.4158254,11.101661 7.2941662,11.622336 7.1624928,11.948952 7.037021,12.597725 6.9115491,13.246498 6.7983387,14.17675 6.641819,14.695532 6.4852993,15.214315 6.2870043,15.306989 6.067412,15.270558 5.8478197,15.234127 5.6047713,15.066607 5.3255436,14.49229 5.0463159,13.917973 4.7325221,12.935526 4.4288422,11.990249 4.1251623,11.044972 3.8315972,10.136907 3.3988812,9.3452825 2.9661651,8.5536578 2.3931546,7.8791208 1.9807151,7.4268345 1.5682755,6.9745482 1.3137323,6.7426664 1.0616354,6.5130132 1.1750857,6.4566602 1.2888319,6.4001602 1.3771254,6.390919 Z"
       id="path9586"
       inkscape:path-effect="#path-effect9588"
       inkscape:original-d="M 1.4019863,6.3439541 C 1.4646093,6.3830393 1.525411,6.4191962 1.5843909,6.4524308 2.057142,6.6228531 2.5280534,6.7903448 2.9971528,6.9549139 3.6771557,8.038074 4.3553101,9.1182653 5.031657,10.195554 5.2548679,10.708909 5.4762489,11.21932 5.695813,11.726816 5.7503448,11.570942 5.8030532,11.412151 5.8539413,11.25043 6.0301042,10.04098 6.2044353,8.8286769 6.3769557,7.613376 6.9120609,6.5940141 7.4453129,5.5717882 7.9767755,4.5465764 8.3781753,3.5590908 8.7777378,2.56872 9.175487,1.5754045 9.5106058,1.3445326 9.8438898,1.1107442 10.17536,0.87402622 c 0.221857,-0.0107351 0.441884,-0.0243953 0.660095,-0.040963 0.19378,0.0379823 0.385727,0.0730367 0.575865,0.10516883 0.206903,0.21331245 0.411973,0.42368995 0.615233,0.63115225 0.166078,0.4033866 0.330331,0.8038262 0.492768,1.2013644 -0.002,0.2504466 -0.0058,0.4979575 -0.01147,0.7425498 0.01439,0.3876682 0.02683,0.7723971 0.0375,1.154218 0.173217,0.00696 0.344598,0.01103 0.514171,0.012145 0.227887,-0.07619 0.453946,-0.155302 0.678186,-0.2373422 0.05521,-0.1051606 0.10858,-0.2132423 0.160141,-0.3242499 0.110226,-0.4740418 0.218604,-0.9509783 0.325178,-1.430869 -0.05041,-0.4684808 -0.156717,-1.4141907 -0.156717,-1.4141907 0,0 0.498495,-0.04292 0.745022,-0.068769 0.08804,0.4645041 0.174238,0.9260465 0.258632,1.3846955 0.0346,0.5380808 0.06738,1.0732049 0.09834,1.6054363 -0.191703,0.3782652 -0.385215,0.753583 -0.580558,1.1259981 -0.163674,0.4369933 -0.329152,0.8710449 -0.496459,1.3021797 -0.275098,0.020563 -0.552011,0.038199 -0.830751,0.052913 C 12.850994,6.6429043 12.439739,6.6074145 12.026635,6.5689971 11.814779,6.1591142 11.601112,5.7463258 11.38562,5.3306031 11.319894,5.1508374 11.25235,4.9681541 11.182983,4.782542 11.208853,4.2042748 11.232899,3.6231182 11.255127,3.0390007 11.05814,2.9612317 10.859343,2.8805426 10.658714,2.7969235 10.488067,2.8307301 10.31561,2.8616098 10.141321,2.889566 9.9569604,3.1994592 9.7707902,3.5064088 9.5827877,3.8104518 9.2288984,4.795451 8.873209,5.7774663 8.5156772,6.7566152 8.2693892,7.5395528 8.0212951,8.3195185 7.7713646,9.0966056 7.6574786,9.8338983 7.5397114,10.581338 7.4242496,11.299663 7.2967471,11.623376 7.165074,11.949993 7.0292302,12.279511 6.9136949,13.246759 6.8004843,14.177011 6.6833318,15.121763 6.4867482,15.217415 6.2884534,15.31009 6.0882814,15.399864 5.8470399,15.235258 5.6039922,15.067737 5.3591079,14.897284 5.0471215,13.917716 4.7333271,12.935269 4.417705,11.949875 4.1259553,11.044716 3.8323899,10.136651 3.5369917,9.2256239 2.9657797,8.5539852 2.3927692,7.8794482 1.8179261,7.2019729 1.5676453,6.97524 1.0616354,6.5130132 1.0616354,6.5130132 c 0,0 0.2287219,-0.109782 0.3403509,-0.1690591 z"
       sodipodi:nodetypes="cccccccccccccccccccccccccccccccccccccccccccccc" />
  </g>
</svg>
